<?xml version="1.0" encoding="utf-8"?>
<!-- Generator: Adobe Illustrator 25.2.1, SVG Export Plug-In . SVG Version: 6.00 Build 0)  -->
<svg version="1.1" id="Layer_1" xmlns="http://www.w3.org/2000/svg" xmlns:xlink="http://www.w3.org/1999/xlink" x="0px" y="0px"
	 viewBox="0 0 68 68" style="enable-background:new 0 0 68 68;" xml:space="preserve">
<style type="text/css">
	.st0{fill:#E52421;}
</style>
<g>
	<circle class="st0" cx="32.8" cy="48.7" r="1.5"/>
	<path class="st0" d="M41.3,28.6L36,17.8l-11.3,5.5L30,34.2L41.3,28.6z M35.4,19.7l4,8.3l-8.8,4.3l-4-8.3L35.4,19.7z"/>
	<polygon class="st0" points="33,40.3 34.2,39.7 32.5,36 47.8,28.6 51.4,36 39.3,41.9 39.9,43.1 53.2,36.6 48.4,26.8 30.7,35.4 	"/>
	<path class="st0" d="M51.4,38.4L38.1,45c-1.2-1.7-3.1-2.7-5.3-2.7c0,0-0.1,0-0.1,0l-14-28.7l-1.9,0.9l3.3,6.7h-4.2v2.1H21l9.5,19.4
		c-2.4,0.9-4.2,3.3-4.2,6c0,3.6,2.9,6.5,6.5,6.5s6.5-2.9,6.5-6.5c0-0.6-0.1-1.2-0.3-1.8l13.4-6.5L51.4,38.4z M32.8,53
		c-2.4,0-4.3-1.9-4.3-4.3c0-2.4,1.9-4.3,4.3-4.3s4.3,1.9,4.3,4.3C37.1,51.1,35.2,53,32.8,53z"/>
</g>
</svg>
