<?xml version="1.0" encoding="utf-8"?>
<!-- Generator: Adobe Illustrator 25.2.1, SVG Export Plug-In . SVG Version: 6.00 Build 0)  -->
<svg version="1.1" id="Layer_1" xmlns="http://www.w3.org/2000/svg" xmlns:xlink="http://www.w3.org/1999/xlink" x="0px" y="0px"
	 viewBox="0 0 61.5 61.5" style="enable-background:new 0 0 61.5 61.5;" xml:space="preserve">
<style type="text/css">
	.st0{fill:#E52421;}
</style>
<g>
	<path class="st0" d="M51.9,6V1.6H9.6V6H2.4v4.7c0,0.2,0,0.4,0,0.6c0,0.2,0.1,0.5,0.1,0.7l0,0.2c0.3,2,0.9,3.8,1.7,5.5l0.1,0.2
		c0.8,1.5,1.7,3.2,3.6,4.5c1.6,1.3,4.2,1.7,5.6,1.9c0.2,0,0.3,0,0.4,0.1c2.5,5.9,6.3,11.4,12.1,12.9c0.3,0.1,0.6,0.1,1,0.2
		c0,0.7,0,1.5,0.1,2.3l0,0.2c0,0.2,0.1,0.9-0.3,1.7c-0.3,0.7-0.9,1.2-1.1,1.3l-0.2,0.1c-0.4,0.2-0.6,0.4-1,0.5
		c-0.4,0.2-0.7,0.3-1,0.3c-0.4,0.1-0.8,0.2-1.4,0.5c-0.9,0.3-1.8,0.7-2.4,1.7l-0.1,0.1c-0.5,0.8-0.6,1.6-0.6,2.1H13v11.6h35.5V48.2
		h-6.2c0-0.4-0.2-1.3-0.6-2.1l-0.1-0.1c-0.7-0.9-1.5-1.3-2.4-1.7c-0.6-0.3-1-0.4-1.4-0.5c-0.3-0.1-0.6-0.1-1.1-0.3
		c-0.3-0.1-0.6-0.3-0.9-0.5L35.7,43c-0.2-0.2-0.8-0.6-1.1-1.3c-0.3-0.8-0.3-1.6-0.3-1.7l0-0.2c0.1-0.7,0.1-1.5,0.1-2.2
		c0.4-0.1,0.7-0.2,1-0.3c5.7-1.5,9.5-7,12-12.9c1.4-0.2,4.3-0.6,6-2c1.9-1.4,2.8-3.1,3.6-4.6l0.1-0.2c1.3-2.4,1.6-4.5,1.7-5.5
		c0.1-0.6,0.1-1.1,0.1-1.4V6H51.9z M9.2,20.7c-1.5-1.1-2.2-2.4-3-3.8l-0.1-0.2c-0.7-1.5-1.2-3.1-1.5-4.8c0-0.3,0-0.6-0.1-0.8
		c0-0.1,0-0.3,0-0.4V8.2h5.3c0.4,2.7,1.3,8.3,3.3,13.9C11.9,21.9,10.2,21.5,9.2,20.7z M46.4,57.7H15.2v-7.4h31.3V57.7z M34.6,44.8
		l0.2,0.1c0.4,0.2,0.7,0.4,1.2,0.6c0.6,0.3,1.1,0.4,1.4,0.5c0.3,0.1,0.5,0.1,0.9,0.3l0.1,0c0.8,0.3,1.2,0.5,1.5,0.9
		c0.2,0.3,0.3,0.7,0.3,1H21.3c0-0.2,0.1-0.6,0.3-1c0.3-0.4,0.7-0.6,1.5-0.9l0.1,0c0.4-0.2,0.6-0.2,0.9-0.3c0.4-0.1,0.8-0.2,1.4-0.4
		c0.5-0.2,0.8-0.4,1.2-0.6l0.3-0.2c0.5-0.3,1.4-1.1,1.9-2.3c0.4-1.1,0.5-2.3,0.4-3c-0.1-0.6-0.1-1.2-0.1-1.8c0,0,0.1,0,0.1,0h2.9
		c0,0,0.1,0,0.1,0c0,0.6,0,1.2-0.1,1.8c-0.1,0.7-0.1,1.8,0.4,3C33.1,43.7,34,44.5,34.6,44.8z M34.9,35.3c-0.7,0.2-1.6,0.3-2.7,0.3
		h-2.9c-1,0-1.9-0.2-2.7-0.4C14.7,32.1,11.9,8.2,11.8,6.5V3.8h38v2.8C49.6,8.2,46.8,32.1,34.9,35.3z M56.9,10.7c0,0.3,0,0.7-0.1,1.1
		l0,0.1c-0.1,0.7-0.3,2.6-1.5,4.8l-0.1,0.2c-0.7,1.4-1.5,2.7-3,3.9c-1,0.8-2.7,1.2-3.9,1.4c2-5.6,3-11.3,3.3-14h5.3V10.7z"/>
	<path class="st0" d="M33.3,14.3l-2.5-5.2l-2.6,5.2l-5.6,0.9l4.1,3.9l-1,5.6l5.1-2.6l5,2.6l-1-5.6l4.1-3.9L33.3,14.3z M34,22.1
		l-3.2-1.6l-3.3,1.6l0.6-3.6l-2.5-2.5l3.6-0.5l1.6-3.2l1.5,3.2l3.6,0.5l-2.5,2.5L34,22.1z"/>
</g>
</svg>
