<?xml version="1.0" encoding="utf-8"?>
<!-- Generator: Adobe Illustrator 25.2.1, SVG Export Plug-In . SVG Version: 6.00 Build 0)  -->
<svg version="1.1" id="Layer_1" xmlns="http://www.w3.org/2000/svg" xmlns:xlink="http://www.w3.org/1999/xlink" x="0px" y="0px"
	 viewBox="0 0 53 52" style="enable-background:new 0 0 53 52;" xml:space="preserve">
<style type="text/css">
	.st0{fill:#FFFFFF;}
</style>
<g>
	<path class="st0" d="M26.5,1c-13.8,0-25,11.2-25,25s11.2,25,25,25s25-11.2,25-25S40.3,1,26.5,1z M26.5,49c-12.7,0-23-10.3-23-23
		c0-12.7,10.3-23,23-23s23,10.3,23,23C49.5,38.7,39.2,49,26.5,49z"/>
	<path class="st0" d="M23.9,18.9v3.5h-3.6v4.4h3.6V38h4.5V26.8h3.3l0.6-4.4h-4v-3.1c-0.1-1.3,0.3-2.1,2.1-2.1h2.3v-4
		C32.3,13.1,31,13,29.4,13C26.1,13,23.9,15.1,23.9,18.9z"/>
</g>
</svg>
