<?xml version="1.0" encoding="utf-8"?>
<!-- Generator: Adobe Illustrator 25.2.1, SVG Export Plug-In . SVG Version: 6.00 Build 0)  -->
<svg version="1.1" id="Layer_1" xmlns="http://www.w3.org/2000/svg" xmlns:xlink="http://www.w3.org/1999/xlink" x="0px" y="0px"
	 viewBox="0 0 68 68" style="enable-background:new 0 0 68 68;" xml:space="preserve">
<style type="text/css">
	.st0{fill:#E52421;}
</style>
<path class="st0" d="M66,38.5h-5c0.5-1.5,0.8-3.3,0.7-5.4l0-0.1c-0.5-5.4-3-9.8-7.1-12.3c-3.9-2.4-8.9-2.9-12.9-1.4l-0.3-6l-2.1-0.1
	c-0.5,2.8-1,5.6-1.5,8.5c-0.6,0.5-0.9,0.8-1.1,1C35.5,23.8,34.6,25,34,26c-0.6-1-1.5-2.2-2.7-3.4c-0.6-0.6-1.3-1.2-1.9-1.6
	c-0.7-4.8-1.4-9.5-2.1-14.3l-2.1,0.1c-0.3,4-0.5,8-0.7,12c-3.7-0.8-7.8-0.1-11.1,2c-7,4.4-7.1,12.5-7.1,12.6c-0.1,1.9,0.2,3.5,0.6,5
	c-1.6,0-3.1,0-4.7,0v2.1c1.8,0,3.7,0,5.5,0c0.5,1.2,1.1,2.2,1.5,2.8l0.1,0.2c2.3,3.8,5.4,5.7,8,7.4l0.1,0c4.5,3,9.6,6.4,16,11.4
	l0.6,0.5l0.6-0.5c5.7-4.4,10.9-8.1,16-11.4l0.6-0.4c2.6-1.7,5.3-3.5,7.6-7.1l0.1-0.1c0.3-0.6,0.9-1.5,1.4-2.6H66V38.5z M41.9,21.5
	c3.5-1.5,8.2-1.1,11.6,1c3.5,2.2,5.6,6,6.1,10.7l0,0.1c0.1,2-0.3,3.7-0.8,5.2H47.5l-0.8,0.4c-1,1.2-1.9,2.3-2.8,3.5
	c-0.3,0.4-0.7,0.9-1,1.3L41.9,21.5C41.9,21.5,41.9,21.5,41.9,21.5z M32.9,28.5l0.3,0.7h1.6l0.3-0.7c0.2-0.4,0.8-1.7,2.1-3.3
	c-0.5,2.7-1,5.4-1.5,8.1c-0.8,4.6-1.7,9.2-2.5,13.9c-0.8-5.6-1.6-11.1-2.4-16.6c-0.3-2.1-0.6-4.3-0.9-6.4
	C31.9,26.2,32.7,28,32.9,28.5z M26.6,17c0.1,0.8,0.2,1.7,0.4,2.5c0,0,0,0-0.1,0c-0.1-0.1-0.3-0.1-0.5-0.2
	C26.5,18.6,26.6,17.8,26.6,17z M8.4,33.3c0-0.1,0.1-7,6.1-10.8c2-1.3,4.5-2,6.9-2c1,0,1.9,0.1,2.9,0.4c0,0.7-0.1,1.4-0.1,2.1
	c-0.3,5.1-0.6,10.1-0.9,15.2c-3.4,0-6.7,0-10.1,0c-1.4,0-2.7,0-4.1,0C8.6,36.8,8.3,35.2,8.4,33.3z M57,42.2L57,42.2
	c-2.1,3.2-4.4,4.8-7,6.5L49.5,49c-5,3.2-10,6.8-15.5,11c-6.2-4.7-11.1-8-15.5-11l-0.1-0.1c-2.6-1.6-5.3-3.3-7.4-6.7l-0.1-0.2
	c-0.3-0.4-0.6-1-1-1.8c1.1,0,2.2,0,3.2,0c3.7,0,7.3,0,11,0l1.1-1c0.3-5.4,0.7-10.8,1-16.2c0-0.5,0.1-1,0.1-1.5
	c0.3,0.2,0.7,0.3,1,0.6c0.4,2.9,0.9,5.8,1.3,8.7c1.1,7.7,2.3,15.4,3.4,23.1l2.1,0c1.2-6.8,2.4-13.5,3.7-20.3c0.7-3.6,1.3-7.2,2-10.8
	l1.1,23.8l1.9,0.6c1-1.2,1.9-2.3,2.8-3.5c0.8-1,1.6-2.1,2.5-3.1h9.9C57.6,41.3,57.3,41.8,57,42.2z"/>
</svg>
