<?xml version="1.0" encoding="utf-8"?>
<!-- Generator: Adobe Illustrator 25.2.1, SVG Export Plug-In . SVG Version: 6.00 Build 0)  -->
<svg version="1.1" id="Layer_1" xmlns="http://www.w3.org/2000/svg" xmlns:xlink="http://www.w3.org/1999/xlink" x="0px" y="0px"
	 viewBox="0 0 52 52" style="enable-background:new 0 0 52 52;" xml:space="preserve">
<style type="text/css">
	.st0{fill:#FFFFFF;}
</style>
<g>
	<path class="st0" d="M26,1C12.2,1,1,12.2,1,26s11.2,25,25,25s25-11.2,25-25S39.8,1,26,1z M26,49C13.3,49,3,38.7,3,26
		C3,13.3,13.3,3,26,3c12.7,0,23,10.3,23,23C49,38.7,38.7,49,26,49z"/>
	<path class="st0" d="M36,16.1c-0.6-0.6-1.3-1.1-2.1-1.4c-0.8-0.3-1.6-0.5-2.9-0.6C29.7,14,29.3,14,26,14s-3.7,0-4.9,0.1
		c-1.3,0.1-2.2,0.3-2.9,0.6c-0.8,0.3-1.5,0.8-2.1,1.4c-0.6,0.6-1.1,1.3-1.4,2.1s-0.5,1.6-0.6,2.9c-0.1,1.3-0.1,1.7-0.1,5
		c0,3.3,0,3.7,0.1,4.9c0.1,1.3,0.3,2.2,0.6,2.9c0.3,0.8,0.8,1.5,1.4,2.1c0.6,0.6,1.3,1.1,2.1,1.4c0.8,0.3,1.6,0.5,2.9,0.6H26
		c3.3,0,3.7,0,4.9-0.1c1.3-0.1,2.2-0.3,2.9-0.6c1.6-0.6,2.9-1.9,3.5-3.5c0.3-0.8,0.5-1.6,0.6-2.9C38,29.7,38,29.3,38,26v-4.9
		c-0.1-1.3-0.3-2.2-0.6-2.9C37.1,17.4,36.6,16.7,36,16.1z M35.8,30.9c-0.1,1.2-0.2,1.8-0.4,2.2c-0.4,1-1.2,1.9-2.3,2.3
		c-0.4,0.2-1.1,0.4-2.2,0.4c-1.3,0.1-1.6,0.1-4.8,0.1s-3.6,0-4.8-0.1c-1.2-0.1-1.8-0.2-2.2-0.4c-0.5-0.2-1-0.5-1.4-0.9
		c-0.4-0.4-0.7-0.9-0.9-1.4c-0.2-0.4-0.4-1.1-0.4-2.2c-0.1-1.3-0.1-1.6-0.1-4.8c0-3.2,0-3.6,0.1-4.8c0.1-1.2,0.2-1.8,0.4-2.2
		c0.2-0.5,0.5-1,0.9-1.4c0.4-0.4,0.9-0.7,1.4-0.9c0.4-0.2,1.1-0.4,2.2-0.4c1.3-0.1,1.6-0.1,4.8-0.1c3.2,0,3.6,0,4.8,0.1
		c1.2,0.1,1.8,0.2,2.2,0.4c0.5,0.2,1,0.5,1.4,0.9c0.4,0.4,0.7,0.9,0.9,1.4c0.2,0.4,0.4,1.1,0.4,2.2c0.1,1.3,0.1,1.6,0.1,4.8
		C35.9,29.3,35.9,29.6,35.8,30.9z"/>
	<path class="st0" d="M26,19.8c-3.4,0-6.2,2.8-6.2,6.2s2.8,6.2,6.2,6.2s6.2-2.8,6.2-6.2S29.4,19.8,26,19.8z M26,30c-2.2,0-4-1.8-4-4
		s1.8-4,4-4s4,1.8,4,4S28.3,30,26,30z"/>
	<path class="st0" d="M32.5,18.2c-0.8,0-1.4,0.6-1.4,1.4c0,0.8,0.6,1.4,1.4,1.4s1.4-0.6,1.4-1.4C33.9,18.8,33.2,18.2,32.5,18.2z"/>
</g>
</svg>
