<?xml version="1.0" encoding="utf-8"?>
<!-- Generator: Adobe Illustrator 25.2.1, SVG Export Plug-In . SVG Version: 6.00 Build 0)  -->
<svg version="1.1" id="Layer_1" xmlns="http://www.w3.org/2000/svg" xmlns:xlink="http://www.w3.org/1999/xlink" x="0px" y="0px"
	 viewBox="0 0 68 68" style="enable-background:new 0 0 68 68;" xml:space="preserve">
<style type="text/css">
	.st0{fill:#E52421;}
</style>
<g>
	<g>
		<path class="st0" d="M18.3,52.9v-9.4h-5.9V15.9h34.3v27.5h-19L18.3,52.9z M14.6,41.3h5.9v6.4l6.4-6.4h17.8V18.1H14.6V41.3z"/>
	</g>
	<g>
		<path class="st0" d="M52.3,53l-1.6-1.1c-1-0.7-1.6-1-2.3-1.4c-0.5-0.3-1.1-0.7-2-1.2H35V45h2.1v2.1H47l0.3,0.2
			c1,0.7,1.6,1,2.2,1.4c0.2,0.1,0.4,0.3,0.7,0.4v-1.9h3.4V34.7h-5.1v-2.1h7.3v16.7h-3.4V53z"/>
	</g>
	<g>
		<rect x="20.7" y="32.2" class="st0" width="18.7" height="1.4"/>
	</g>
	<g>
		<rect x="20.7" y="28.9" class="st0" width="18.7" height="1.4"/>
	</g>
	<g>
		<rect x="20.7" y="25.6" class="st0" width="18.7" height="1.4"/>
	</g>
</g>
</svg>
