<?xml version="1.0" encoding="utf-8"?>
<!-- Generator: Adobe Illustrator 25.2.1, SVG Export Plug-In . SVG Version: 6.00 Build 0)  -->
<svg version="1.1" id="Layer_1" xmlns="http://www.w3.org/2000/svg" xmlns:xlink="http://www.w3.org/1999/xlink" x="0px" y="0px"
	 viewBox="0 0 53 52" style="enable-background:new 0 0 53 52;" xml:space="preserve">
<style type="text/css">
	.st0{fill:#FFFFFF;}
</style>
<g>
	<path class="st0" d="M26.5,1c-13.8,0-25,11.2-25,25s11.2,25,25,25s25-11.2,25-25S40.3,1,26.5,1z M26.5,49c-12.7,0-23-10.3-23-23
		c0-12.7,10.3-23,23-23c12.7,0,23,10.3,23,23C49.5,38.7,39.2,49,26.5,49z"/>
	<path class="st0" d="M26.8,14c-6.6,0-10.1,4.2-10.1,8.8c0,2.1,1.2,4.8,3.1,5.6c0.5,0.2,0.5-0.1,0.9-1.8c0-0.1,0-0.3-0.1-0.4
		c-2.7-3.2-0.5-9.6,5.8-9.6c9.1,0,7.4,12.6,1.6,12.6c-1.5,0-2.6-1.2-2.3-2.6c0.4-1.7,1.3-3.6,1.3-4.8c0-3.1-4.7-2.7-4.7,1.5
		c0,1.3,0.5,2.2,0.5,2.2s-1.5,6.1-1.8,7.2c-0.5,1.9,0.1,5,0.1,5.3c0,0.1,0.2,0.2,0.3,0.1c0.1-0.2,2-2.8,2.5-4.7
		c0.2-0.7,0.9-3.5,0.9-3.5c0.5,0.9,2,1.7,3.5,1.7c4.6,0,7.9-4,7.9-9.1C36.2,17.6,32.1,14,26.8,14z"/>
</g>
</svg>
