<?xml version="1.0" encoding="utf-8"?>
<!-- Generator: Adobe Illustrator 25.2.1, SVG Export Plug-In . SVG Version: 6.00 Build 0)  -->
<svg version="1.1" id="Layer_1" xmlns="http://www.w3.org/2000/svg" xmlns:xlink="http://www.w3.org/1999/xlink" x="0px" y="0px"
	 viewBox="0 0 68 68" style="enable-background:new 0 0 68 68;" xml:space="preserve">
<style type="text/css">
	.st0{fill:#E52421;}
</style>
<g>
	<path class="st0" d="M49.6,22l0.9-0.9l1,1c0.7,0.7,1.8,0.7,2.4,0c0.7-0.6,0.7-1.7,0-2.4l-3.2-3.2c-0.6-0.7-1.7-0.7-2.4,0
		c-0.7,0.6-0.7,1.7,0,2.4l1,1l-0.9,0.9c-3.4-3.2-7.9-5.2-12.8-5.6v-4h-3.4v4c-11,0.9-19.8,10.1-19.8,21.4c0,11.8,9.6,21.5,21.5,21.5
		s21.5-9.6,21.5-21.5C55.4,30.9,53.2,25.8,49.6,22z M33.9,55.8c-10.7,0-19.3-8.7-19.3-19.3c0-10.7,8.7-19.3,19.3-19.3
		s19.3,8.7,19.3,19.3C53.2,47.2,44.6,55.8,33.9,55.8z"/>
	<path class="st0" d="M34.6,34V21.3h-1.4V34c-1.1,0.3-1.9,1.3-1.9,2.5c0,1.2,0.8,2.2,1.9,2.5v2.8h1.4V39c1.1-0.3,1.9-1.3,1.9-2.5
		C36.5,35.3,35.7,34.3,34.6,34z"/>
</g>
</svg>
